<?xml version="1.0" standalone="no"?>
<!DOCTYPE svg PUBLIC "-//W3C//DTD SVG 20010904//EN"
 "http://www.w3.org/TR/2001/REC-SVG-20010904/DTD/svg10.dtd">
<svg version="1.0" xmlns="http://www.w3.org/2000/svg"
 width="512.000000pt" height="512.000000pt" viewBox="0 0 512.000000 512.000000"
 preserveAspectRatio="xMidYMid meet">

<g transform="translate(0.000000,512.000000) scale(0.100000,-0.100000)"
fill="#000000" stroke="none">
<path d="M4469 4578 c-6 -12 -11 -40 -11 -62 1 -23 2 -57 3 -76 2 -77 -5 -98
-37 -113 -32 -16 -64 -69 -64 -106 0 -21 -4 -21 -195 -21 -189 0 -195 1 -195
20 0 38 -28 89 -59 104 -69 36 -162 6 -145 -47 15 -48 50 -61 88 -32 27 21 53
19 61 -4 10 -32 -12 -104 -73 -238 -82 -177 -111 -255 -118 -306 -16 -116 58
-186 295 -276 116 -45 127 -58 83 -104 l-32 -33 43 -42 c23 -23 47 -42 53 -42
5 0 30 21 54 46 l45 45 -32 29 c-50 45 -39 57 92 106 105 39 197 90 240 134
31 32 39 48 43 89 6 63 -9 108 -103 321 -74 167 -100 246 -89 274 8 20 48 21
64 1 27 -32 90 -2 90 42 0 24 -39 53 -71 53 l-30 0 6 51 c4 29 15 59 26 70 23
23 25 69 4 109 -19 36 -21 36 -36 8z m-389 -638 l0 -220 -30 0 c-23 0 -30 -4
-30 -20 0 -16 7 -20 35 -20 30 0 35 -3 35 -23 0 -43 -24 -62 -78 -62 -40 0
-56 5 -77 25 -65 60 -71 140 -20 285 19 55 37 120 40 145 15 119 9 110 70 110
l55 0 0 -220z m40 -1 c0 -144 -3 -218 -10 -214 -6 4 -10 88 -10 221 0 136 4
214 10 214 6 0 10 -80 10 -221z m50 7 c0 -133 -4 -217 -10 -221 -7 -4 -10 70
-10 214 0 141 4 221 10 221 6 0 10 -78 10 -214z m40 -6 c0 -140 -4 -220 -10
-220 -6 0 -10 80 -10 220 0 140 4 220 10 220 6 0 10 -80 10 -220z m161 150 c8
-78 23 -136 55 -212 46 -110 23 -237 -50 -272 -40 -19 -69 -20 -99 -5 -28 15
-37 28 -37 57 0 18 6 22 30 22 23 0 30 5 30 19 0 15 -8 21 -32 23 l-33 3 -3
205 c-1 112 0 210 3 218 3 9 22 12 67 10 l63 -3 6 -65z"/>
<path d="M4380 4476 c0 -38 4 -48 33 -70 31 -25 32 -25 35 -5 3 19 -39 102
-58 114 -6 4 -10 -12 -10 -39z"/>
<path d="M4521 4434 c-40 -33 -39 -44 2 -44 31 0 60 20 81 58 14 24 -51 13
-83 -14z"/>
<path d="M1280 4122 c-6 -2 -10 -12 -10 -22 0 -13 10 -20 39 -25 22 -4 46 -14
53 -22 10 -12 14 -78 16 -262 3 -243 0 -313 -17 -340 -5 -8 -26 -17 -47 -20
-30 -5 -39 -11 -39 -26 0 -19 7 -20 160 -20 153 0 160 1 160 20 0 15 -9 21
-38 26 -21 3 -43 11 -50 18 -8 8 -12 55 -12 144 l0 132 183 3 182 2 0 -133 c0
-148 -5 -162 -65 -169 -22 -2 -31 -9 -33 -25 l-3 -23 161 0 161 0 -3 23 c-2
16 -11 23 -33 25 -66 8 -65 5 -65 322 0 319 -2 310 68 325 26 5 32 11 30 27
-3 18 -11 20 -158 20 -149 1 -155 0 -158 -20 -2 -16 4 -22 30 -27 64 -14 68
-24 68 -167 l0 -128 -186 0 -186 0 3 128 c4 145 9 157 70 167 38 7 52 26 29
40 -11 7 -292 13 -310 7z"/>
<path d="M2194 4121 c-2 -2 -4 -12 -4 -22 0 -13 11 -20 35 -25 64 -12 65 -17
65 -324 0 -304 -3 -320 -59 -320 -31 0 -52 -16 -44 -36 4 -11 38 -14 165 -14
l159 0 -3 23 c-2 16 -11 23 -33 25 -66 8 -65 5 -65 323 0 318 -1 311 65 323
29 6 36 11 33 28 -3 20 -9 21 -156 22 -85 0 -156 -1 -158 -3z"/>
<path d="M2614 4115 c-9 -21 2 -32 41 -39 64 -12 65 -19 65 -321 0 -298 -4
-318 -55 -323 -37 -5 -56 -19 -48 -38 4 -12 28 -14 132 -12 118 3 126 4 126
23 0 15 -9 21 -39 26 -21 3 -42 12 -46 19 -12 19 -22 235 -18 395 l3 140 228
-302 c185 -247 232 -303 251 -303 l23 0 8 333 c4 186 11 337 17 344 5 6 27 14
49 18 29 5 39 11 39 26 0 10 -4 19 -10 20 -87 4 -244 -1 -252 -9 -16 -16 -1
-31 38 -38 61 -11 64 -23 64 -272 l0 -224 -166 218 c-204 269 -233 300 -298
319 -65 20 -145 20 -152 0z"/>
<path d="M557 4113 c-4 -3 -7 -51 -7 -105 l0 -98 30 0 c24 0 31 5 36 28 28
123 38 134 130 140 l64 4 0 -304 c0 -334 -2 -348 -59 -348 -31 0 -52 -16 -44
-36 4 -11 38 -14 165 -14 l159 0 -3 23 c-2 16 -11 23 -33 25 -66 8 -65 2 -65
344 l0 308 50 0 c88 0 118 -27 138 -125 7 -36 11 -40 40 -43 l32 -3 0 90 c0
49 -3 96 -6 105 -5 14 -42 16 -313 16 -169 0 -311 -3 -314 -7z"/>
<path d="M665 2721 c-62 -28 -79 -53 -83 -124 -6 -91 16 -117 153 -189 123
-64 155 -93 155 -141 0 -63 -55 -107 -133 -107 -62 0 -97 29 -97 80 0 21 6 43
15 50 21 17 1 40 -35 40 -44 0 -75 -31 -75 -77 0 -76 53 -118 162 -129 119
-13 233 48 249 131 18 97 -25 153 -177 231 -111 56 -139 84 -139 133 0 32 46
78 86 85 93 18 157 -52 102 -111 -19 -20 -20 -25 -8 -33 44 -28 110 14 110 68
0 37 -34 80 -76 98 -48 20 -160 18 -209 -5z"/>
<path d="M1065 2720 c-9 -15 -1 -22 38 -35 20 -6 34 -19 38 -35 4 -14 7 -113
8 -220 1 -217 -5 -241 -54 -250 -18 -3 -30 -11 -30 -20 0 -12 23 -15 128 -18
119 -2 128 -1 125 15 -2 10 -14 19 -28 21 -46 7 -50 18 -50 133 0 88 3 109 14
109 8 0 70 -63 138 -140 l123 -139 78 -1 c68 0 78 2 75 17 -2 9 -16 20 -32 24
-30 8 -153 123 -248 232 l-50 57 88 91 c94 96 120 114 181 127 23 5 38 14 38
22 0 12 -21 16 -107 18 -103 3 -108 2 -108 -18 0 -11 7 -20 15 -20 33 0 11
-41 -64 -121 -43 -46 -93 -92 -110 -102 l-31 -18 0 105 c0 114 9 136 56 136
19 0 25 5 22 18 -3 15 -18 17 -125 20 -80 2 -124 -1 -128 -8z"/>
<path d="M1715 2720 c-9 -15 -1 -22 38 -35 20 -6 34 -19 38 -35 4 -14 7 -113
8 -220 1 -217 -5 -241 -54 -250 -18 -3 -30 -11 -30 -20 0 -12 23 -15 128 -18
119 -2 128 -1 125 15 -2 10 -14 19 -28 21 -50 7 -50 10 -50 253 0 248 2 259
56 259 19 0 25 5 22 18 -3 15 -18 17 -125 20 -80 2 -124 -1 -128 -8z"/>
<path d="M2055 2720 c-9 -15 4 -30 26 -30 10 0 28 -9 40 -21 20 -20 20 -29 17
-238 -3 -235 -6 -247 -56 -253 -16 -2 -27 -9 -27 -18 0 -12 19 -16 103 -18 95
-2 103 -1 100 15 -2 11 -14 19 -31 21 -15 2 -32 12 -37 22 -6 12 -9 96 -8 216
l3 197 178 -236 c127 -171 183 -237 197 -237 19 0 20 7 20 248 0 272 4 293 55
302 16 3 28 8 27 13 -1 4 -2 12 -2 17 0 6 -40 10 -100 10 -93 0 -100 -1 -100
-20 0 -15 7 -20 25 -20 49 0 56 -30 53 -218 l-3 -171 -145 192 c-119 157 -154
196 -190 215 -46 23 -134 31 -145 12z"/>
<path d="M2736 2721 c-10 -15 2 -31 22 -31 10 0 28 -7 40 -16 22 -15 22 -19
22 -229 0 -117 -4 -225 -10 -239 -7 -20 -16 -26 -40 -26 -23 0 -30 -4 -30 -20
0 -19 7 -20 98 -20 54 0 101 3 105 6 11 12 -6 34 -27 34 -48 0 -51 10 -54 172
-2 84 -2 178 0 208 l3 55 179 -237 c199 -265 215 -278 217 -180 1 31 5 152 8
267 l6 210 35 11 c19 7 35 18 35 25 0 11 -22 14 -100 14 -87 0 -100 -2 -103
-17 -3 -13 3 -18 22 -18 52 0 56 -16 56 -208 0 -135 -3 -173 -12 -164 -6 6
-73 91 -147 189 -75 97 -148 185 -162 196 -31 23 -152 36 -163 18z"/>
<path d="M3427 2724 c-14 -15 -6 -34 14 -34 11 0 29 -5 40 -10 18 -10 19 -24
19 -244 0 -249 0 -251 -50 -258 -14 -1 -26 -11 -28 -21 -3 -16 11 -17 225 -15
l228 3 13 65 c14 73 11 90 -17 90 -13 0 -23 -11 -31 -34 -6 -19 -20 -46 -31
-60 -19 -24 -26 -26 -103 -26 -50 0 -87 5 -94 12 -8 8 -12 48 -12 115 l0 102
88 3 c69 2 87 6 87 18 0 12 -18 16 -87 18 l-88 3 0 119 0 120 75 0 c66 0 79
-3 99 -23 13 -13 27 -43 31 -65 6 -36 10 -42 31 -42 25 0 25 1 22 83 l-3 82
-211 3 c-115 1 -213 -1 -217 -4z"/>
<path d="M3975 2721 c-9 -16 -1 -23 38 -36 20 -6 34 -19 38 -35 4 -14 7 -113
8 -220 1 -217 -5 -241 -54 -250 -18 -3 -30 -11 -30 -20 0 -23 274 -26 359 -5
106 27 194 104 217 189 16 59 6 173 -19 222 -28 54 -97 114 -158 138 -61 23
-386 37 -399 17z m333 -47 c86 -36 133 -111 140 -225 7 -128 -29 -213 -110
-255 -37 -19 -134 -23 -165 -6 -23 13 -23 14 -23 257 l0 245 60 0 c33 0 77 -7
98 -16z"/>
<path d="M1492 1520 c-105 -22 -213 -114 -253 -218 -34 -87 -32 -208 4 -287
34 -72 94 -137 162 -173 43 -23 62 -27 140 -27 78 0 97 4 147 28 75 37 134 98
172 177 27 58 31 75 31 155 0 76 -4 99 -27 146 -14 31 -42 75 -63 98 -71 78
-207 122 -313 101z m144 -59 c171 -78 181 -466 15 -578 -40 -27 -135 -32 -179
-9 -80 42 -123 131 -130 267 -4 79 -1 109 16 165 24 77 69 139 116 160 44 19
114 17 162 -5z"/>
<path d="M564 1496 c-9 -23 4 -36 36 -36 57 0 60 -17 60 -295 0 -276 0 -278
-60 -293 -20 -4 -35 -15 -35 -23 0 -11 27 -15 148 -17 142 -2 147 -2 147 18 0
14 -7 20 -24 20 -13 0 -34 8 -47 18 -19 16 -23 31 -27 105 -6 116 -6 116 60
104 107 -19 229 30 285 114 23 35 28 53 28 103 0 82 -27 126 -95 155 -59 26
-86 29 -303 36 -142 5 -168 3 -173 -9z m382 -57 c52 -25 69 -57 69 -133 0 -95
-46 -146 -143 -162 -23 -3 -57 -3 -77 0 l-35 7 1 122 c2 155 7 179 39 187 37
10 100 0 146 -21z"/>
<path d="M1997 1495 c-10 -24 0 -35 33 -35 57 0 60 -17 60 -295 0 -276 0 -278
-60 -293 -20 -4 -35 -15 -35 -23 0 -12 42 -14 257 -17 297 -3 273 -12 284 108
l7 72 -28 -4 c-22 -2 -30 -12 -46 -52 -27 -73 -36 -79 -133 -84 -68 -4 -91 -1
-111 12 -24 16 -25 19 -25 136 l0 119 98 3 c92 3 97 4 100 26 3 22 1 22 -97
22 l-101 0 0 135 0 135 89 0 c109 0 127 -11 145 -90 11 -48 16 -55 38 -58 33
-4 36 7 30 106 l-5 82 -157 0 c-86 0 -197 3 -247 6 -79 6 -91 5 -96 -11z"/>
<path d="M3273 1494 c-8 -20 6 -32 42 -36 52 -5 56 -26 53 -301 -3 -248 -3
-249 -27 -268 -13 -10 -34 -19 -48 -19 -18 0 -24 -5 -21 -17 3 -16 18 -18 148
-18 130 0 145 2 148 18 3 12 -3 17 -21 17 -14 0 -35 9 -48 19 -22 18 -24 28
-27 130 l-4 111 32 0 c50 0 66 -14 133 -118 101 -155 138 -182 247 -182 52 0
60 2 60 19 0 12 -9 20 -29 24 -16 4 -46 20 -66 38 -34 30 -165 216 -165 235 0
5 20 17 45 27 123 51 155 182 65 268 -51 49 -92 57 -318 63 -168 5 -194 4
-199 -10z m381 -53 c50 -28 70 -65 70 -126 -2 -100 -45 -137 -170 -143 l-84
-5 0 116 c0 128 8 163 42 177 30 12 105 2 142 -19z"/>
<path d="M3950 1490 c0 -14 10 -22 38 -29 55 -15 82 -50 161 -208 l71 -143 0
-104 c0 -97 -2 -106 -22 -120 -12 -9 -33 -16 -45 -16 -16 0 -23 -6 -23 -20 0
-19 7 -20 145 -20 138 0 145 1 145 20 0 15 -7 20 -25 20 -14 0 -34 9 -46 21
-19 19 -20 30 -17 127 l4 107 79 149 c44 81 91 155 103 164 13 8 40 18 60 21
28 5 37 11 37 26 0 19 -7 20 -125 20 -122 0 -125 -1 -128 -22 -3 -20 1 -23 32
-23 19 0 38 -5 42 -11 7 -11 -114 -269 -126 -269 -3 0 -33 54 -65 121 -83 167
-133 209 -252 209 -36 0 -43 -3 -43 -20z"/>
<path d="M2615 1427 c-9 -97 -6 -111 28 -115 29 -4 32 0 42 60 10 61 40 88
108 95 l57 6 0 -286 c0 -284 0 -286 -22 -301 -12 -9 -33 -16 -45 -16 -16 0
-23 -6 -23 -20 0 -19 7 -20 145 -20 135 0 145 1 145 19 0 14 -10 21 -35 25
-19 4 -39 15 -45 26 -6 11 -10 128 -10 296 l0 277 56 -6 c67 -7 101 -33 110
-86 10 -54 22 -73 47 -69 20 3 22 10 25 73 2 38 0 80 -3 92 l-5 23 -284 0
-284 0 -7 -73z"/>
</g>
</svg>
