<?xml version="1.0" standalone="no"?>
<!DOCTYPE svg PUBLIC "-//W3C//DTD SVG 20010904//EN"
 "http://www.w3.org/TR/2001/REC-SVG-20010904/DTD/svg10.dtd">
<svg version="1.0" xmlns="http://www.w3.org/2000/svg"
 width="512.000000pt" height="512.000000pt" viewBox="0 0 512.000000 512.000000"
 preserveAspectRatio="xMidYMid meet">
<metadata>
Created by potrace 1.14, written by Peter Selinger 2001-2017
</metadata>
<g transform="translate(0.000000,512.000000) scale(0.100000,-0.100000)"
fill="#000000" stroke="none">
<path d="M3694 5104 c-4 -10 -16 -41 -27 -69 -39 -100 -77 -251 -77 -305 0
-60 32 -143 69 -177 20 -19 20 -21 6 -74 -9 -30 -24 -92 -34 -139 -18 -84 -18
-84 -29 -50 -6 19 -13 63 -17 98 -8 78 -30 130 -105 252 -68 109 -134 189
-146 177 -5 -5 -11 -64 -13 -132 -3 -115 -1 -128 22 -177 31 -67 70 -106 147
-147 39 -21 66 -43 76 -63 22 -42 55 -140 50 -146 -3 -2 -34 -15 -70 -27 -169
-59 -262 -193 -274 -392 l-5 -93 -708 0 -709 0 0 68 c0 184 -84 327 -235 399
-57 26 -90 35 -170 42 -150 15 -222 -4 -283 -73 -45 -52 -58 -103 -43 -172 20
-88 81 -146 170 -160 37 -6 46 -3 95 35 75 56 129 83 180 88 38 5 45 2 70 -28
28 -33 29 -34 23 -144 -7 -151 -55 -308 -159 -530 -245 -518 -408 -899 -497
-1155 l-36 -105 0 -180 c0 -176 1 -181 28 -240 80 -170 256 -311 592 -475 176
-85 342 -154 570 -237 83 -30 167 -66 189 -81 42 -29 86 -87 86 -114 0 -9 -50
-65 -110 -124 -61 -60 -109 -113 -108 -119 4 -15 336 -330 348 -330 13 0 348
317 349 331 1 5 -46 54 -104 108 -58 54 -108 108 -111 121 -3 12 1 36 10 53
29 57 90 92 279 162 538 199 844 360 1026 541 118 116 151 205 151 404 0 113
-4 146 -26 221 -60 208 -222 598 -441 1064 -145 306 -164 354 -205 510 -46
178 -42 296 11 337 39 30 133 0 234 -76 57 -44 71 -47 129 -31 73 21 128 89
143 177 13 80 -51 178 -140 214 -17 7 -71 12 -122 11 l-93 0 0 52 c0 46 4 56
33 84 31 30 37 32 106 32 39 0 104 7 143 16 64 15 77 22 120 66 52 53 108 142
108 171 0 20 -12 21 -120 7 -45 -6 -96 -21 -128 -37 -52 -26 -143 -114 -177
-170 -10 -16 -31 -39 -48 -53 l-30 -24 7 24 c4 14 16 66 27 115 18 85 22 93
68 135 77 72 86 92 86 190 0 78 -3 92 -40 170 -22 47 -54 109 -72 139 -27 46
-33 52 -39 35z m-1434 -2394 l0 -790 -115 0 -115 0 0 -80 0 -80 130 0 130 0 0
-72 c-1 -153 -80 -230 -252 -244 -196 -17 -349 73 -436 257 -22 46 -45 106
-52 134 -49 206 -24 440 66 634 118 253 200 591 220 913 l7 108 206 3 c113 1
207 3 209 5 1 1 2 -353 2 -788z m310 -6 l0 -784 -35 0 -35 0 0 788 0 788 35
-4 35 -4 0 -784z m160 6 l0 -790 -45 0 -45 0 0 784 0 785 43 4 c23 2 43 4 45
5 1 1 2 -353 2 -788z m-320 -5 l0 -785 -35 0 -35 0 0 785 0 785 35 0 35 0 0
-785z m870 736 c0 -226 82 -634 170 -846 131 -314 145 -371 137 -580 -3 -115
-9 -154 -31 -220 -46 -140 -114 -236 -207 -292 -179 -107 -444 -68 -505 74 -8
18 -14 66 -14 108 l0 75 110 0 110 0 0 80 0 80 -120 0 -120 0 0 785 0 785 235
0 235 0 0 -49z"/>
</g>
</svg>
